<svg width="1440" height="1024" viewBox="0 0 1440 1024" fill="none" xmlns="http://www.w3.org/2000/svg">
<g id="Desktop - 1">
<rect width="1440" height="1024" fill="white"/>
<g id="Ship">
<g id="undraw_Container_ship_ok1c 1">
<path id="Vector" d="M243.188 493.11H232.188V640.11H243.188V493.11Z" fill="#6C63FF" stroke="#6C63FF" stroke-miterlimit="10"/>
<path id="Vector_2" d="M576.688 595.808H467.42V662.007H576.688V595.808Z" fill="#F55F44"/>
<path id="Vector_3" d="M685.956 595.808H576.688V662.007H685.956V595.808Z" fill="#4D8AF0"/>
<path id="Vector_4" d="M795.224 595.808H685.956V662.007H795.224V595.808Z" fill="#3AD29F"/>
<path id="Vector_5" d="M575.89 662.007H466.623V728.206H575.89V662.007Z" fill="#4D8AF0"/>
<path id="Vector_6" d="M467.42 662.007H358.152V728.206H467.42V662.007Z" fill="#F55F44"/>
<path id="Vector_7" d="M685.956 662.007H576.688V728.206H685.956V662.007Z" fill="#3AD29F"/>
<path id="Vector_8" d="M795.224 662.007H685.956V728.206H795.224V662.007Z" fill="#FDD835"/>
<g id="Group" opacity="0.1">
<path id="Vector_9" opacity="0.1" d="M501.317 595.409H486.961V661.608H501.317V595.409Z" fill="black"/>
<path id="Vector_10" opacity="0.1" d="M529.232 595.409H514.876V661.608H529.232V595.409Z" fill="black"/>
<path id="Vector_11" opacity="0.1" d="M557.147 595.409H542.791V661.608H557.147V595.409Z" fill="black"/>
</g>
<g id="Group_2" opacity="0.1">
<path id="Vector_12" opacity="0.1" d="M610.585 595.409H596.229V661.608H610.585V595.409Z" fill="black"/>
<path id="Vector_13" opacity="0.1" d="M638.5 595.409H624.144V661.608H638.5V595.409Z" fill="black"/>
<path id="Vector_14" opacity="0.1" d="M666.415 595.409H652.059V661.608H666.415V595.409Z" fill="black"/>
</g>
<g id="Group_3" opacity="0.1">
<path id="Vector_15" opacity="0.1" d="M719.853 595.409H705.496V661.608H719.853V595.409Z" fill="black"/>
<path id="Vector_16" opacity="0.1" d="M747.768 595.409H733.411V661.608H747.768V595.409Z" fill="black"/>
<path id="Vector_17" opacity="0.1" d="M775.683 595.409H761.327V661.608H775.683V595.409Z" fill="black"/>
</g>
<g id="Group_4" opacity="0.1">
<path id="Vector_18" opacity="0.1" d="M501.317 661.608H486.961V727.807H501.317V661.608Z" fill="black"/>
<path id="Vector_19" opacity="0.1" d="M529.232 661.608H514.876V727.807H529.232V661.608Z" fill="black"/>
<path id="Vector_20" opacity="0.1" d="M557.147 661.608H542.791V727.807H557.147V661.608Z" fill="black"/>
</g>
<g id="Group_5" opacity="0.1">
<path id="Vector_21" opacity="0.1" d="M392.049 661.608H377.693V727.807H392.049V661.608Z" fill="black"/>
<path id="Vector_22" opacity="0.1" d="M419.965 661.608H405.608V727.807H419.965V661.608Z" fill="black"/>
<path id="Vector_23" opacity="0.1" d="M447.88 661.608H433.523V727.807H447.88V661.608Z" fill="black"/>
</g>
<g id="Group_6" opacity="0.1">
<path id="Vector_24" opacity="0.1" d="M610.585 661.608H596.229V727.807H610.585V661.608Z" fill="black"/>
<path id="Vector_25" opacity="0.1" d="M638.5 661.608H624.144V727.807H638.5V661.608Z" fill="black"/>
<path id="Vector_26" opacity="0.1" d="M666.415 661.608H652.059V727.807H666.415V661.608Z" fill="black"/>
</g>
<g id="Group_7" opacity="0.1">
<path id="Vector_27" opacity="0.1" d="M719.853 661.608H705.496V727.807H719.853V661.608Z" fill="black"/>
<path id="Vector_28" opacity="0.1" d="M747.768 661.608H733.411V727.807H747.768V661.608Z" fill="black"/>
<path id="Vector_29" opacity="0.1" d="M775.683 661.608H761.327V727.807H775.683V661.608Z" fill="black"/>
</g>
<path id="Vector_30" d="M949 805.61H103V831.61H949V805.61Z" fill="#6C63FF" stroke="#6C63FF" stroke-miterlimit="10"/>
<path id="Vector_31" d="M850.688 702.61H352.688C349.508 702.601 346.461 701.333 344.213 699.085C341.964 696.836 340.697 693.79 340.688 690.61V617.286L146.688 595.61V818.61H862.688V690.61C862.678 693.79 861.411 696.836 859.163 699.085C856.914 701.333 853.867 702.601 850.688 702.61V702.61Z" fill="#6C63FF" stroke="#6C63FF" stroke-miterlimit="10"/>
<path id="Vector_32" d="M219.688 619.61H146.688V661.61H219.688V619.61Z" fill="white"/>
<path id="Vector_33" d="M237.688 513.61C249.286 513.61 258.688 504.208 258.688 492.61C258.688 481.012 249.286 471.61 237.688 471.61C226.09 471.61 216.688 481.012 216.688 492.61C216.688 504.208 226.09 513.61 237.688 513.61Z" fill="#6C63FF" stroke="#6C63FF" stroke-miterlimit="10"/>
<g id="Group_8" opacity="0.5">
<path id="Vector_34" opacity="0.5" d="M322.948 443.922L316.054 442.702C316.233 440.997 316.511 439.304 316.886 437.632C318.056 422.851 307.807 407.297 293.397 403.374L295.241 396.601C308.37 400.176 318.496 411.163 322.338 423.958C325.733 418.147 330.3 413.106 335.749 409.156C341.198 405.205 347.409 402.431 353.987 401.01L355.375 407.891C340.271 410.938 327.432 423.781 323.842 438.75C323.672 440.493 323.373 442.222 322.948 443.922V443.922Z" fill="url(#paint0_linear)"/>
</g>
<g id="Group_9" opacity="0.5">
<path id="Vector_35" opacity="0.5" d="M470.459 380.523L466.011 379.736C466.127 378.637 466.306 377.545 466.548 376.466C467.303 366.932 460.692 356.899 451.397 354.369L452.587 350C461.056 352.306 467.587 359.393 470.065 367.646C472.255 363.898 475.201 360.646 478.716 358.098C482.23 355.55 486.237 353.76 490.48 352.844L491.375 357.282C481.632 359.247 473.351 367.532 471.035 377.187C470.926 378.312 470.733 379.427 470.459 380.523V380.523Z" fill="url(#paint1_linear)"/>
</g>
<g id="Group_10" opacity="0.5">
<path id="Vector_36" opacity="0.5" d="M741.459 360.523L737.011 359.736C737.127 358.637 737.306 357.545 737.548 356.466C738.303 346.932 731.692 336.899 722.397 334.369L723.587 330C732.056 332.306 738.587 339.393 741.065 347.646C743.255 343.898 746.201 340.646 749.716 338.098C753.23 335.55 757.237 333.76 761.48 332.844L762.375 337.282C752.632 339.247 744.351 347.532 742.035 357.187C741.926 358.312 741.733 359.427 741.459 360.523V360.523Z" fill="url(#paint2_linear)"/>
</g>
<g id="Group_11" opacity="0.5">
<path id="Vector_37" opacity="0.5" d="M198.375 473.683C235.378 473.683 265.375 443.686 265.375 406.683C265.375 369.68 235.378 339.683 198.375 339.683C161.372 339.683 131.375 369.68 131.375 406.683C131.375 443.686 161.372 473.683 198.375 473.683Z" fill="url(#paint3_linear)"/>
</g>
</g>
</g>
<g id="Birds">
<path id="Vector_38" d="M921.26 361.142L915.366 360.099C915.52 358.642 915.757 357.195 916.078 355.765C917.078 343.13 908.317 329.835 896 326.482L897.576 320.693C908.799 323.748 917.454 333.14 920.738 344.077C923.64 339.11 927.544 334.801 932.202 331.424C936.859 328.047 942.168 325.676 947.792 324.461L948.978 330.343C936.067 332.947 925.093 343.926 922.023 356.721C921.878 358.211 921.623 359.689 921.26 361.142V361.142Z" fill="#706A6A"/>
<path id="Vector_39" d="M1068.89 295.834L1066 295.323C1066.07 294.608 1066.19 293.899 1066.35 293.198C1066.84 287.002 1062.54 280.483 1056.5 278.839L1057.27 276C1059.97 276.809 1062.43 278.282 1064.41 280.286C1066.4 282.289 1067.85 284.758 1068.63 287.467C1070.05 285.031 1071.97 282.918 1074.25 281.262C1076.54 279.606 1079.14 278.443 1081.9 277.848L1082.48 280.732C1079.3 281.461 1076.38 283.055 1074.05 285.337C1071.72 287.62 1070.06 290.502 1069.26 293.666C1069.19 294.397 1069.06 295.122 1068.89 295.834V295.834Z" fill="#706A6A"/>
<path id="Vector_40" d="M1339.89 275.834L1337 275.323C1337.07 274.608 1337.19 273.899 1337.35 273.198C1337.84 267.002 1333.54 260.483 1327.5 258.839L1328.27 256C1330.97 256.809 1333.43 258.282 1335.41 260.286C1337.4 262.289 1338.85 264.758 1339.63 267.467C1341.05 265.031 1342.97 262.918 1345.25 261.262C1347.54 259.606 1350.14 258.443 1352.9 257.848L1353.48 260.732C1350.3 261.461 1347.38 263.055 1345.05 265.337C1342.72 267.62 1341.06 270.502 1340.26 273.666C1340.19 274.397 1340.06 275.122 1339.89 275.834V275.834Z" fill="#706A6A"/>
</g>
<g id="Wave1">
<path id="Vector_41" d="M377 931.514C384.436 911.438 407.819 900.982 429.211 901.82C450.604 902.657 470.53 912.322 489.706 921.841C508.881 931.361 528.738 941.12 550.121 942.168C597.64 944.498 637.63 904.042 684.984 899.451C741.278 893.993 791.235 939.836 847.761 941.724C857.702 942.056 867.84 940.957 876.994 937.067C884.962 933.681 891.906 928.317 899.431 924.036C937.411 902.436 984.914 910.592 1026.93 922.569C1068.95 934.546 1112.57 949.889 1155.28 940.688" fill="#4D8AF0"/>
<path id="Vector_42" d="M377 820.514C384.436 800.438 407.819 789.982 429.211 790.82C450.604 791.657 470.53 801.322 489.706 810.841C508.881 820.361 528.738 830.12 550.121 831.168C597.64 833.498 637.63 793.042 684.984 788.451C741.278 782.993 791.235 828.836 847.761 830.724C857.702 831.056 867.84 829.957 876.994 826.067C884.962 822.681 891.906 817.317 899.431 813.037C937.411 791.436 984.914 799.592 1026.93 811.569C1068.95 823.546 1112.57 838.889 1155.28 829.688" fill="#4D8AF0"/>
</g>
<g id="Wave2">
<path id="Vector_43" d="M603 975.514C610.436 955.438 633.819 944.982 655.211 945.82C676.604 946.657 696.53 956.322 715.706 965.841C734.881 975.361 754.738 985.12 776.121 986.168C823.64 988.498 863.63 948.042 910.984 943.451C967.278 937.993 1017.23 983.836 1073.76 985.724C1083.7 986.056 1093.84 984.957 1102.99 981.067C1110.96 977.681 1117.91 972.317 1125.43 968.036C1163.41 946.436 1210.91 954.592 1252.93 966.569C1294.95 978.546 1338.57 993.889 1381.28 984.688" fill="#4D8AF0"/>
<path id="Vector_44" d="M603 874.498C610.434 856.902 633.808 847.738 655.193 848.471C676.577 849.205 696.496 857.676 715.665 866.02C734.834 874.364 754.683 882.917 776.058 883.836C823.56 885.878 863.536 850.42 910.873 846.395C967.146 841.611 1017.08 881.791 1073.59 883.446C1083.53 883.737 1093.66 882.774 1102.81 879.365C1110.78 876.397 1117.72 871.695 1125.24 867.944C1163.21 849.012 1210.69 856.16 1252.7 866.657C1294.7 877.155 1338.3 890.603 1381 882.538" fill="#4D8AF0"/>
</g>
<path id="Sun" d="M458 330C492.242 330 520 302.242 520 268C520 233.758 492.242 206 458 206C423.758 206 396 233.758 396 268C396 302.242 423.758 330 458 330Z" fill="#FDD835"/>
</g>
<defs>
<linearGradient id="paint0_linear" x1="324.386" y1="443.922" x2="324.386" y2="396.601" gradientUnits="userSpaceOnUse">
<stop stop-color="#808080" stop-opacity="0.25"/>
<stop offset="0.53514" stop-color="#808080" stop-opacity="0.12"/>
<stop offset="1" stop-color="#808080" stop-opacity="0.1"/>
</linearGradient>
<linearGradient id="paint1_linear" x1="22367.3" y1="5704.18" x2="22367.3" y2="4772.51" gradientUnits="userSpaceOnUse">
<stop stop-color="#808080" stop-opacity="0.25"/>
<stop offset="0.53514" stop-color="#808080" stop-opacity="0.12"/>
<stop offset="1" stop-color="#808080" stop-opacity="0.1"/>
</linearGradient>
<linearGradient id="paint2_linear" x1="33472.3" y1="5073.71" x2="33472.3" y2="4142.05" gradientUnits="userSpaceOnUse">
<stop stop-color="#808080" stop-opacity="0.25"/>
<stop offset="0.53514" stop-color="#808080" stop-opacity="0.12"/>
<stop offset="1" stop-color="#808080" stop-opacity="0.1"/>
</linearGradient>
<linearGradient id="paint3_linear" x1="18673.7" y1="19593.2" x2="18673.7" y2="1637.24" gradientUnits="userSpaceOnUse">
<stop stop-color="#808080" stop-opacity="0.25"/>
<stop offset="0.53514" stop-color="#808080" stop-opacity="0.12"/>
<stop offset="1" stop-color="#808080" stop-opacity="0.1"/>
</linearGradient>
</defs>
</svg>
