<svg width="667" height="498" viewBox="0 0 667 498" fill="none" xmlns="http://www.w3.org/2000/svg">
<g id="Man-with Coffe">
<g id="Group 100">
<path id="Path 1465" d="M561.877 381.724C559.605 381.724 557.383 382.398 555.494 383.66C553.604 384.923 552.132 386.717 551.262 388.817C550.392 390.917 550.165 393.227 550.608 395.456C551.052 397.684 552.146 399.732 553.753 401.339C555.36 402.946 557.407 404.04 559.636 404.483C561.865 404.927 564.175 404.699 566.274 403.829C568.374 402.96 570.169 401.487 571.431 399.598C572.694 397.708 573.367 395.487 573.367 393.214C573.367 390.167 572.157 387.244 570.002 385.089C567.847 382.935 564.925 381.724 561.877 381.724ZM561.877 400.285C560.479 400.285 559.112 399.87 557.949 399.093C556.786 398.316 555.88 397.212 555.345 395.92C554.809 394.628 554.669 393.206 554.942 391.835C555.215 390.463 555.889 389.203 556.878 388.214C557.866 387.225 559.126 386.552 560.498 386.279C561.87 386.006 563.291 386.146 564.583 386.681C565.875 387.216 566.98 388.123 567.757 389.286C568.534 390.448 568.948 391.816 568.948 393.214C568.948 395.089 568.203 396.888 566.877 398.214C565.551 399.54 563.753 400.285 561.877 400.285Z" fill="#C21FD0"/>
<path id="Path 1467" d="M517.684 372.885H561.877V416.624C561.877 418.151 561.271 419.615 560.191 420.695C559.112 421.774 557.647 422.381 556.12 422.381H523.441C521.915 422.381 520.45 421.774 519.371 420.695C518.291 419.615 517.684 418.151 517.684 416.624V372.885Z" fill="#C21FD0"/>
</g>
<path id="Path 944" d="M665.133 423.382H0.895996C0.649996 423.355 0.421989 423.238 0.256989 423.053C0.0919885 422.869 0 422.63 0 422.382C0 422.134 0.0919885 421.895 0.256989 421.711C0.421989 421.526 0.649996 421.409 0.895996 421.382H665.133C665.38 421.409 665.607 421.526 665.773 421.711C665.938 421.895 666.03 422.134 666.03 422.382C666.03 422.63 665.938 422.869 665.773 423.053C665.607 423.238 665.38 423.355 665.133 423.382Z" fill="#CACACA"/>
<path id="Vector" d="M89.41 404.491L85.302 424.804L161.695 450.318L167.759 420.339L89.41 404.491Z" fill="#FFB6B6"/>
<path id="Vector_2" d="M97.09 400.653L88.999 440.656V440.657C87.631 447.418 83.633 453.359 77.885 457.172C72.137 460.986 65.11 462.36 58.349 460.993L57.521 460.825L70.768 395.329L97.09 400.653Z" fill="#2F2E41"/>
<path id="Ellipse 276" d="M175.979 124.695C204.627 124.695 227.85 101.472 227.85 72.8236C227.85 44.1756 204.627 20.9526 175.979 20.9526C147.332 20.9526 124.108 44.1756 124.108 72.8236C124.108 101.472 147.332 124.695 175.979 124.695Z" fill="#FEB8B8"/>
<path id="Path 1461" d="M224.427 28.0736C216.672 15.4806 204.533 6.20058 190.346 2.02158L183.978 6.66859V0.634558C180.571 0.113558 177.123 -0.0874171 173.678 0.0345829L168.184 5.00556V0.447577C160.05 1.45858 152.213 4.14356 145.168 8.33356C138.124 12.5246 132.023 18.1296 127.252 24.7946C115.321 41.9946 113.307 65.9236 125.042 83.2616C128.263 73.3616 132.173 64.0726 135.395 54.1736C137.927 54.5186 140.493 54.5316 143.028 54.2106L146.947 45.0656L148.042 53.8236C160.19 52.7656 178.208 50.4416 189.724 48.3126L188.604 41.5936L195.304 47.1766C198.832 46.3646 200.927 45.6276 200.754 45.0646C209.319 58.8726 219.801 67.6916 228.365 81.4996C231.618 62.0296 235.362 45.8406 224.427 28.0736Z" fill="#2F2E41"/>
<path id="Ellipse 260" d="M192.856 412.257C266.62 412.257 326.416 395.531 326.416 374.898C326.416 354.265 266.62 337.539 192.856 337.539C119.093 337.539 59.296 354.265 59.296 374.898C59.296 395.531 119.093 412.257 192.856 412.257Z" fill="#2F2E41"/>
<path id="Vector_3" d="M287.539 206.212C285.756 195.481 283.916 184.544 278.928 174.877C275.651 168.545 270.447 162.511 263.433 161.259C262.052 161.136 260.694 160.822 259.399 160.325C257.343 159.335 229.725 143.569 225.336 140.823C221.567 138.466 215.617 134.101 212.617 134.101C209.599 134.034 198.026 136.728 152.857 133.197C145.259 136.247 137.901 139.864 130.846 144.019C130.701 143.923 83.964 169.02 82.209 168.954C78.883 168.814 75.793 170.943 73.886 173.624C71.981 176.305 71.087 179.624 70.151 182.833C80.359 205.566 89.698 228.328 99.907 251.061C100.385 251.917 100.639 252.88 100.646 253.861C100.44 254.879 100.006 255.836 99.376 256.661C94.369 264.703 94.528 274.818 95.075 284.27C95.623 293.722 96.299 303.706 92.075 312.178C90.926 314.504 89.432 316.633 88.339 318.959C85.78 324.227 84.856 341.076 86.35 346.736L273.617 352.101C269.59 341.033 287.539 206.212 287.539 206.212Z" fill="#63E3FF"/>
<path id="Path 1421" d="M53.963 252.069C53.59 254.772 53.552 257.511 53.851 260.223L56.535 298.769C56.787 302.402 57.035 306.026 57.376 309.65C58.02 316.683 58.982 323.66 60.176 330.627C60.203 331.616 60.622 332.554 61.34 333.235C62.057 333.917 63.016 334.285 64.005 334.26C75.82 336.76 88.027 336.66 100.085 335.979C118.485 334.952 165.559 333.009 168.435 329.273C171.311 325.537 169.635 319.494 165.885 316.473C162.135 313.452 100.014 306.087 100.014 306.087C100.621 301.277 102.452 296.747 104.189 292.18C107.309 284.08 110.223 275.714 110.279 267.037C110.335 258.36 107.066 249.237 99.958 244.266C94.111 240.185 86.583 239.428 79.458 239.596C74.274 239.745 65.317 238.503 60.582 240.53C56.835 242.18 54.663 248.4 53.963 252.069Z" fill="#FBBEBE"/>
<path id="Path 1423" d="M287.871 339.202C290.981 338.016 294.409 338.445 297.743 338.894C308.475 340.36 319.365 341.864 329.312 346.151C333.982 348.151 338.428 350.821 341.585 354.751C344.385 358.291 346.021 362.625 347.572 366.893L351.159 376.719C352.684 380.41 353.736 384.28 354.288 388.235C355.409 399.994 347.367 411.08 337.252 417.189C327.137 423.298 315.229 425.473 303.628 427.752C292.027 430.031 280.381 432.552 268.828 435.224C263.44 436.622 257.972 437.698 252.455 438.446C240.089 439.846 227.163 437.783 215.413 441.874C210.743 443.509 206.157 445.937 201.313 447.067C198.093 447.744 194.838 448.24 191.562 448.552L169.324 451.092C164.802 451.697 160.25 452.046 155.688 452.138C145.975 452.138 136.42 449.838 126.988 447.538C125.986 447.362 125.032 446.977 124.188 446.408C122.694 445.231 122.367 443.148 122.152 441.262C121.2 432.912 120.366 424.553 119.652 416.185C119.428 413.467 119.26 410.525 120.745 408.237C122.613 405.437 126.256 404.557 129.581 404.015C143.681 401.708 157.964 400.717 172.246 401.054C177.672 395.628 186.62 395.6 193.728 392.648C196.343 391.447 198.874 390.071 201.303 388.529C214.017 381.111 228.225 376.622 242.893 375.388C245.766 375.3 248.62 374.893 251.402 374.174C256.902 372.465 261.919 367.813 267.569 368.953C268.269 367.02 268.755 364.432 270.369 363.106C271.169 362.424 272.162 361.967 272.9 361.238C274.46 359.66 274.6 357.175 274.366 354.971C274.132 352.767 273.609 350.507 274.179 348.358C274.416 347.545 274.765 346.768 275.216 346.051C278.008 341.219 282.239 338.735 287.871 339.202Z" fill="#2F2E41"/>
<path id="Path 1430" d="M69.61 183.525C68.701 184.478 67.995 185.606 67.537 186.841C59.988 203.856 55.528 222.079 54.368 240.657C54.389 241.563 54.18 242.459 53.761 243.263C53.349 243.798 52.889 244.295 52.388 244.748C51.952 245.266 51.621 245.864 51.416 246.509C51.211 247.154 51.135 247.833 51.192 248.507C51.249 249.182 51.439 249.84 51.75 250.441C52.061 251.043 52.487 251.577 53.005 252.014C53.09 252.085 53.177 252.154 53.266 252.22C54.807 249.32 58.496 248.371 61.775 248.119C77.475 246.877 92.811 254.182 108.558 253.631C107.447 249.792 105.849 246.103 104.943 242.218C100.936 224.967 110.93 206.185 104.803 189.569C103.579 186.244 101.534 182.975 98.312 181.518C96.978 180.98 95.582 180.61 94.156 180.418C90.177 179.699 82.256 176.626 78.409 177.859C76.989 178.317 76.429 179.652 75.252 180.459C73.464 181.601 71.092 182.021 69.61 183.525Z" fill="#63E3FF"/>
<path id="Path 1421_2" d="M287.651 240.53C282.916 238.503 273.959 239.745 268.775 239.596C261.65 239.428 254.122 240.185 248.275 244.266C241.167 249.237 237.898 258.36 237.954 267.037C238.01 275.714 240.924 284.08 244.044 292.18C245.781 296.747 247.612 301.277 248.219 306.087C248.219 306.087 186.098 313.452 182.348 316.473C178.598 319.494 176.922 325.537 179.798 329.273C182.674 333.009 272.413 336.76 284.228 334.26C285.218 334.285 286.176 333.917 286.894 333.235C287.612 332.554 288.03 331.616 288.057 330.627C289.251 323.66 290.213 316.683 290.857 309.65C291.198 306.026 291.446 302.402 291.698 298.769L294.382 260.223C294.682 257.511 294.644 254.772 294.27 252.069C293.57 248.4 291.398 242.18 287.651 240.53Z" fill="#FBBEBE"/>
<path id="Path 1430_2" d="M272.981 180.459C271.804 179.652 271.244 178.317 269.824 177.859C265.977 176.626 258.056 179.699 254.077 180.418C252.652 180.61 251.255 180.98 249.921 181.518C246.699 182.975 244.654 186.244 243.43 189.569C237.303 206.185 247.297 224.967 243.29 242.218C242.384 246.103 240.786 249.792 239.675 253.631C255.422 254.182 270.758 246.877 286.458 248.119C289.737 248.371 293.426 249.32 294.967 252.22C295.057 252.154 295.144 252.085 295.229 252.014C295.746 251.577 296.173 251.043 296.484 250.441C296.795 249.84 296.984 249.182 297.042 248.507C297.099 247.833 297.023 247.154 296.817 246.509C296.612 245.864 296.282 245.266 295.845 244.748C295.345 244.295 294.885 243.798 294.472 243.263C294.054 242.459 293.845 241.563 293.865 240.657C292.705 222.079 288.246 203.856 280.696 186.841C280.238 185.606 279.533 184.478 278.623 183.525C277.141 182.021 274.769 181.601 272.981 180.459Z" fill="#63E3FF"/>
<path id="Vector_4" d="M299.243 433.489L296.513 454.032L215.975 453.277L220.005 422.957L299.243 433.489Z" fill="#FFB6B6"/>
<path id="Vector_5" d="M319.853 430.896L311.049 497.136L310.211 497.025C303.374 496.116 297.177 492.528 292.984 487.05C288.792 481.573 286.947 474.654 287.855 467.816V467.815L293.232 427.358L319.853 430.896Z" fill="#2F2E41"/>
<path id="Path 1427" d="M109.769 349.598C109.769 350.532 108.303 349.598 108.169 348.598C107.142 341.042 101.145 334.812 94.159 331.786C87.173 328.76 79.215 328.601 71.65 329.32C60.209 330.403 47.366 334.784 43.182 345.478C42.192 347.978 32.918 370.238 33.823 375.244C36.261 388.6 45.395 400.023 56.463 407.934C67.531 415.845 80.463 420.571 93.363 424.834C127.47 436.082 162.462 444.44 197.97 449.818C203.723 450.687 209.533 451.49 215.043 453.339C219.974 454.992 224.588 457.467 229.408 459.41C240.616 463.91 252.674 465.518 264.619 467.097C266.655 467.359 268.99 467.545 270.494 466.163C272.437 464.363 271.794 461.222 271.241 458.635C269.214 448.798 270.915 438.559 276.014 429.906C278.014 426.544 280.614 423.097 280.236 419.206C279.788 414.667 275.267 411.454 270.765 410.725C266.263 409.996 261.687 411.071 257.165 411.659C255.616 412.015 253.992 411.854 252.542 411.201C251.871 410.747 251.261 410.208 250.73 409.595C247.616 406.591 243.631 404.65 239.345 404.051C235.06 403.452 230.695 404.226 226.876 406.261C225.204 407.195 222.676 405.112 220.936 404.328L201.294 395.436C178.729 385.228 156.052 374.972 132.179 368.509C130.275 368.134 128.464 367.382 126.855 366.295C125.669 365.361 124.819 364.095 123.726 363.054C121.344 360.803 118.026 359.906 115.171 358.309C112.316 356.712 109.115 352.801 109.769 349.598Z" fill="#2F2E41"/>
<path id="Vector_6" d="M160.617 336.101C168.349 336.101 174.617 329.833 174.617 322.101C174.617 314.369 168.349 308.101 160.617 308.101C152.885 308.101 146.617 314.369 146.617 322.101C146.617 329.833 152.885 336.101 160.617 336.101Z" fill="#FBBEBE"/>
<path id="Vector_7" d="M191.617 336.101C199.349 336.101 205.617 329.833 205.617 322.101C205.617 314.369 199.349 308.101 191.617 308.101C183.885 308.101 177.617 314.369 177.617 322.101C177.617 329.833 183.885 336.101 191.617 336.101Z" fill="#FBBEBE"/>
<path id="Vector_8" d="M278.035 353.648H85.697C83.451 353.645 81.298 352.752 79.71 351.164C78.122 349.577 77.229 347.424 77.226 345.178V228.492C77.229 226.246 78.122 224.093 79.71 222.506C81.298 220.918 83.451 220.025 85.697 220.022H278.035C280.281 220.025 282.434 220.918 284.022 222.506C285.61 224.093 286.503 226.246 286.506 228.492V345.178C286.503 347.424 285.61 349.577 284.022 351.164C282.434 352.752 280.281 353.645 278.035 353.648Z" fill="#3F3D56"/>
<path id="Ellipse 263" d="M181.399 292.439C184.494 292.439 187.003 289.93 187.003 286.835C187.003 283.74 184.494 281.231 181.399 281.231C178.304 281.231 175.795 283.74 175.795 286.835C175.795 289.93 178.304 292.439 181.399 292.439Z" fill="white"/>
</g>
</svg>
