<svg width="829" height="365" viewBox="0 0 829 365" fill="none" xmlns="http://www.w3.org/2000/svg">
<g id="ScootyGirl">
<g id="Web_Worker 1" clip-path="url(#clip0)">
<g id="Tyres">
<path id="Vector" d="M618.25 363.329C649.316 363.329 674.5 338.145 674.5 307.079C674.5 276.013 649.316 250.829 618.25 250.829C587.184 250.829 562 276.013 562 307.079C562 338.145 587.184 363.329 618.25 363.329Z" fill="#3F3D56"/>
<path id="Vector_2" d="M618.25 320.866C625.864 320.866 632.037 314.693 632.037 307.079C632.037 299.465 625.864 293.292 618.25 293.292C610.636 293.292 604.463 299.465 604.463 307.079C604.463 314.693 610.636 320.866 618.25 320.866Z" fill="white"/>
<path id="Vector_3" d="M334.25 363.329C370.01 363.329 399 334.34 399 298.579C399 262.819 370.01 233.829 334.25 233.829C298.49 233.829 269.5 262.819 269.5 298.579C269.5 334.34 298.49 363.329 334.25 363.329Z" fill="#3F3D56"/>
<path id="Vector_4" d="M334.25 314.449C343.015 314.449 350.12 307.344 350.12 298.579C350.12 289.814 343.015 282.709 334.25 282.709C325.485 282.709 318.38 289.814 318.38 298.579C318.38 307.344 325.485 314.449 334.25 314.449Z" fill="white"/>
</g>
<g id="GirlOnScooty">
<path id="Vector_5" d="M424.5 212.508H328.519L327.501 182.998C327.457 181.718 327.691 180.445 328.186 179.264C328.682 178.084 329.427 177.025 330.371 176.16C331.315 175.296 332.435 174.646 333.654 174.255C334.873 173.865 336.162 173.743 337.432 173.899L393.287 180.738H393.294C401.574 180.761 409.508 184.064 415.358 189.926C421.207 195.787 424.495 203.728 424.5 212.008V212.508Z" fill="#6C63FF"/>
<path id="Vector_6" d="M381.721 107.829H314.779C313.889 107.829 313.007 108.004 312.184 108.345C311.362 108.685 310.615 109.184 309.985 109.814C309.355 110.444 308.856 111.191 308.516 112.014C308.175 112.836 308 113.718 308 114.608V181.55C308 182.44 308.175 183.322 308.516 184.145C308.856 184.967 309.355 185.715 309.985 186.344C310.615 186.974 311.362 187.473 312.184 187.814C313.007 188.154 313.889 188.329 314.779 188.329H381.721C382.611 188.329 383.493 188.154 384.316 187.814C385.138 187.473 385.886 186.974 386.515 186.344C387.145 185.715 387.644 184.967 387.984 184.145C388.325 183.322 388.5 182.44 388.5 181.55V114.608C388.5 113.718 388.325 112.836 387.984 112.014C387.644 111.191 387.145 110.444 386.515 109.814C385.886 109.184 385.138 108.685 384.316 108.345C383.493 108.004 382.611 107.829 381.721 107.829V107.829Z" fill="#CCCCCC"/>
<path id="Vector_7" d="M366.645 157.886L335.038 164.041C333.164 164.404 331.221 164.008 329.638 162.941C328.054 161.874 326.959 160.222 326.592 158.348L324.162 145.872C323.799 143.997 324.195 142.055 325.262 140.471C326.329 138.888 327.981 137.792 329.855 137.425L361.462 131.27C363.336 130.907 365.279 131.303 366.862 132.37C368.446 133.437 369.541 135.089 369.908 136.963L372.338 149.439C372.701 151.314 372.305 153.256 371.238 154.84C370.171 156.423 368.519 157.519 366.645 157.886Z" fill="#3F3D56"/>
<path id="Vector_8" d="M360.321 143.146L336.201 147.844C335.759 147.93 335.302 147.837 334.93 147.585C334.557 147.334 334.299 146.945 334.213 146.504C334.127 146.063 334.22 145.606 334.471 145.233C334.723 144.86 335.112 144.603 335.553 144.517L359.673 139.819C360.115 139.734 360.572 139.826 360.945 140.078C361.317 140.329 361.575 140.718 361.661 141.159C361.747 141.6 361.654 142.057 361.403 142.43C361.151 142.803 360.762 143.061 360.321 143.146V143.146Z" fill="white"/>
<path id="Vector_9" d="M355.633 150.102L343.157 152.532C342.715 152.618 342.258 152.525 341.886 152.274C341.513 152.023 341.255 151.634 341.169 151.192C341.083 150.751 341.176 150.294 341.427 149.921C341.679 149.549 342.068 149.291 342.509 149.205L354.985 146.775C355.203 146.733 355.428 146.734 355.646 146.778C355.864 146.822 356.072 146.909 356.256 147.034C356.441 147.158 356.599 147.318 356.722 147.503C356.845 147.689 356.93 147.897 356.972 148.115C357.015 148.333 357.014 148.558 356.97 148.776C356.925 148.994 356.839 149.202 356.714 149.386C356.59 149.571 356.43 149.729 356.245 149.852C356.059 149.975 355.851 150.06 355.633 150.102Z" fill="white"/>
<path id="Vector_10" d="M388.5 114.608V123.505H308V114.608C308 113.718 308.175 112.836 308.516 112.014C308.856 111.191 309.355 110.444 309.985 109.814C310.615 109.184 311.362 108.685 312.184 108.345C313.007 108.004 313.889 107.829 314.779 107.829H381.721C382.611 107.829 383.493 108.004 384.316 108.345C385.138 108.685 385.885 109.184 386.515 109.814C387.145 110.444 387.644 111.191 387.984 112.014C388.325 112.836 388.5 113.718 388.5 114.608Z" fill="#B3B3B3"/>
<path id="Vector_11" d="M549.251 126.292C548.786 124.791 547.998 123.411 546.942 122.249C545.886 121.086 544.589 120.169 543.14 119.562C541.691 118.955 540.128 118.674 538.558 118.737C536.989 118.8 535.453 119.206 534.057 119.927L441.961 86.8841L437.905 109.891L529.708 135.137C531.075 137.4 533.224 139.084 535.749 139.869C538.274 140.653 540.999 140.485 543.408 139.394C545.817 138.304 547.742 136.368 548.819 133.953C549.896 131.538 550.05 128.812 549.251 126.292V126.292Z" fill="#FFB8B8"/>
<path id="Vector_12" opacity="0.2" d="M549.251 126.292C548.786 124.791 547.998 123.411 546.942 122.249C545.886 121.086 544.589 120.169 543.14 119.562C541.691 118.955 540.128 118.674 538.558 118.737C536.989 118.8 535.453 119.206 534.057 119.927L441.961 86.8841L437.905 109.891L529.708 135.137C531.075 137.4 533.224 139.084 535.749 139.869C538.274 140.653 540.999 140.485 543.408 139.394C545.817 138.304 547.742 136.368 548.819 133.953C549.896 131.538 550.05 128.812 549.251 126.292V126.292Z" fill="black"/>
<path id="Vector_13" d="M458.308 91.0764L449.611 113.797C449.363 114.443 448.979 115.029 448.485 115.513C447.991 115.998 447.398 116.371 446.747 116.606C446.096 116.84 445.402 116.932 444.712 116.875C444.022 116.817 443.353 116.612 442.75 116.272L421.614 104.376C418.314 103.091 415.658 100.55 414.229 97.3101C412.799 94.0701 412.713 90.3954 413.989 87.0918C415.264 83.7883 417.798 81.1253 421.034 79.6867C424.27 78.2482 427.944 78.1514 431.251 79.4176L454.853 84.6523C455.529 84.8024 456.165 85.0963 456.716 85.5141C457.268 85.932 457.724 86.4638 458.051 87.0734C458.379 87.6831 458.572 88.3562 458.616 89.047C458.66 89.7378 458.555 90.43 458.308 91.0764V91.0764Z" fill="#6C63FF"/>
<path id="Vector_14" d="M556.5 147.329L523.5 162.329L527.833 178.64C536.199 210.138 538.42 242.952 534.372 275.29V275.29L558.5 280.329L578.5 229.329L571.5 171.329L556.5 147.329Z" fill="#6C63FF"/>
<path id="Vector_15" d="M621.25 222.829C599.568 222.829 581.898 238.591 581.041 258.329H661.459C660.602 238.591 642.932 222.829 621.25 222.829Z" fill="#3F3D56"/>
<path id="Vector_16" d="M604.372 226.231C603.243 137.132 552.5 145.329 552.5 145.329C552.5 145.329 553.449 173.062 553.905 173.925C586.241 235.104 532.875 306.829 464.945 293.634C463.665 293.385 462.434 293.133 461.254 292.877C452.647 291.08 445.047 286.071 440.001 278.871C434.955 271.67 432.842 262.817 434.091 254.114C440.782 200.378 407.5 201.329 407.5 201.329H358.834L333.56 178.583C332.668 177.78 331.593 177.208 330.429 176.917C329.264 176.626 328.046 176.624 326.881 176.912C325.716 177.2 324.639 177.77 323.745 178.57C322.851 179.371 322.166 180.378 321.751 181.504L318.5 190.329C318.5 190.329 270.5 195.329 274.5 242.329H289.34C289.304 243.665 289.358 245.001 289.5 246.329L400.251 245.429C406.743 245.376 412.473 250.636 412.5 257.128C412.507 258.709 412.194 260.275 411.582 261.732C410.97 263.189 410.07 264.507 408.936 265.609C407.802 266.71 406.458 267.571 404.984 268.141C403.509 268.71 401.935 268.977 400.355 268.924L382.5 268.329C377 292.829 390.5 309.329 405.375 319.704C419.38 329.331 435.999 334.435 452.993 334.329H501.5C564.5 334.329 575.5 281.329 575.5 281.329C608.5 267.329 604.372 226.231 604.372 226.231Z" fill="#3F3D56"/>
<path id="Vector_17" d="M523.594 166.761L511.72 134.512C511.101 132.831 510.82 131.045 510.891 129.255C510.963 127.465 511.386 125.707 512.137 124.081C512.888 122.455 513.952 120.993 515.268 119.778C516.584 118.563 518.126 117.62 519.807 117.001L553.847 104.47C556.804 103.381 559.947 102.885 563.096 103.01C566.245 103.136 569.339 103.881 572.2 105.202C575.061 106.523 577.634 108.395 579.772 110.71C581.909 113.026 583.57 115.739 584.659 118.697C585.641 121.351 586.143 124.159 586.14 126.989C586.127 130.583 585.314 134.128 583.759 137.368C582.205 140.608 579.948 143.461 577.152 145.719C575.133 147.339 572.863 148.619 570.432 149.508L523.594 166.761Z" fill="#3F3D56"/>
<path id="Vector_18" d="M585.64 126.989C585.637 130.509 584.845 133.984 583.322 137.158C581.799 140.332 579.584 143.124 576.84 145.329C572.629 144.218 568.711 142.204 565.358 139.426C562.004 136.648 559.296 133.173 557.421 129.243C555.547 125.313 554.55 121.021 554.502 116.667C554.453 112.313 555.354 108 557.14 104.029C560.57 103.283 564.124 103.315 567.54 104.122C570.956 104.929 574.148 106.491 576.881 108.693C579.615 110.895 581.82 113.682 583.336 116.848C584.851 120.014 585.639 123.479 585.64 126.989V126.989Z" fill="#6C63FF"/>
<path id="Vector_19" d="M283 248.829C290.732 248.829 297 241.218 297 231.829C297 222.44 290.732 214.829 283 214.829C275.268 214.829 269 222.44 269 231.829C269 241.218 275.268 248.829 283 248.829Z" fill="#6C63FF"/>
<path id="Vector_20" d="M468.061 292.005H480.321L486.154 260.208L468.059 260.209L468.061 292.005Z" fill="#FFB8B8"/>
<path id="Vector_21" d="M464.934 288.003L489.078 288.001H489.079C491.099 288.001 493.1 288.399 494.967 289.173C496.834 289.946 498.53 291.079 499.959 292.508C501.387 293.937 502.521 295.633 503.294 297.5C504.067 299.366 504.465 301.367 504.465 303.388V303.888L464.935 303.889L464.934 288.003Z" fill="#2F2E41"/>
<path id="Vector_22" d="M482.292 278.955C482.149 278.955 482.005 278.948 481.861 278.934L464.895 277.699C464.209 277.635 463.546 277.415 462.959 277.055C462.371 276.694 461.874 276.204 461.506 275.622C461.138 275.039 460.909 274.38 460.836 273.694C460.763 273.009 460.848 272.316 461.086 271.669L483.792 220.655C483.954 220.2 484.021 219.717 483.987 219.235C483.953 218.753 483.82 218.284 483.596 217.856C483.372 217.423 483.06 217.043 482.679 216.739C482.298 216.436 481.857 216.217 481.385 216.096C470.707 213.305 443.313 205.874 419.598 197.178C409.438 193.453 403.039 188.069 400.579 181.176C397.336 172.089 402.134 163.802 402.34 163.455L402.501 163.182L424.816 165.21L449.007 167.268L502.02 195.696C506.462 198.098 509.836 202.085 511.471 206.864C513.105 211.642 512.879 216.861 510.839 221.48L486.398 276.288C486.044 277.081 485.468 277.756 484.74 278.229C484.011 278.702 483.161 278.954 482.292 278.955Z" fill="#2F2E41"/>
<path id="Vector_23" d="M428.696 64.2813C442.26 64.2813 453.257 53.2849 453.257 39.7202C453.257 26.1556 442.26 15.1592 428.696 15.1592C415.131 15.1592 404.135 26.1556 404.135 39.7202C404.135 53.2849 415.131 64.2813 428.696 64.2813Z" fill="#FFB8B8"/>
<path id="Vector_24" d="M461.061 295.005H473.321L479.154 263.208L461.059 263.209L461.061 295.005Z" fill="#FFB8B8"/>
<path id="Vector_25" d="M457.934 291.003L482.078 291.001H482.079C484.099 291.001 486.1 291.399 487.967 292.173C489.834 292.946 491.53 294.079 492.959 295.508C494.387 296.937 495.521 298.633 496.294 300.5C497.067 302.366 497.465 304.367 497.465 306.388V306.888L457.935 306.889L457.934 291.003Z" fill="#2F2E41"/>
<path id="Vector_26" d="M475.292 281.955C475.149 281.955 475.005 281.948 474.861 281.934L457.895 280.699C457.209 280.635 456.546 280.415 455.959 280.055C455.371 279.694 454.874 279.204 454.506 278.622C454.138 278.039 453.909 277.38 453.836 276.694C453.763 276.009 453.848 275.316 454.086 274.669L476.792 223.655C476.954 223.2 477.021 222.717 476.987 222.235C476.953 221.753 476.82 221.284 476.596 220.856C476.372 220.423 476.06 220.043 475.679 219.739C475.298 219.436 474.857 219.217 474.385 219.096C463.707 216.305 436.313 208.874 412.598 200.178C402.438 196.453 396.039 191.069 393.579 184.176C390.336 175.089 395.134 166.802 395.34 166.455L395.501 166.182L417.816 168.21L442.007 170.268L495.02 198.696C499.462 201.098 502.836 205.085 504.471 209.864C506.105 214.642 505.879 219.861 503.839 224.48L479.398 279.288C479.044 280.081 478.468 280.756 477.74 281.229C477.011 281.702 476.161 281.954 475.292 281.955Z" fill="#2F2E41"/>
<path id="Vector_27" d="M436.27 78.2084L410.27 69.2084C410.27 69.2084 393.948 81.7484 401.789 112.857C405.883 128.91 404.69 145.855 398.389 161.177C397.631 163.073 396.756 164.92 395.77 166.708C395.77 166.708 424.77 201.708 451.77 175.708L441.27 125.208C441.27 125.208 457.77 91.7084 436.27 78.2084Z" fill="#6C63FF"/>
<path id="Vector_28" d="M431.745 65.1165C428.249 59.8842 425.491 52.629 429.339 47.6506C433.138 42.7365 440.632 43.4605 446.45 41.286C454.554 38.2573 459.254 28.7367 457.788 20.2103C456.322 11.684 449.478 4.61591 441.324 1.72388C433.17 -1.16815 423.976 -0.227596 415.991 3.10275C406.162 7.20245 397.73 15.133 394.194 25.179C390.658 35.225 392.548 47.2871 399.883 55.0086C407.747 63.287 420.089 65.4932 431.506 65.3593" fill="#2F2E41"/>
<path id="GirlHair" d="M408.898 20.484C404.493 24.0698 397.773 22.4771 393.045 19.3301C388.316 16.183 384.479 11.7018 379.363 9.23442C370.344 4.88447 359.44 7.77619 350.662 12.5945C341.884 17.4129 334.103 24.0695 324.831 27.8507C315.558 31.6319 303.727 31.8188 296.706 24.6791C294.978 29.6849 294.837 35.1019 296.301 40.191C297.766 45.28 300.765 49.7933 304.889 53.115C309.013 56.4367 314.062 58.405 319.346 58.7514C324.631 59.0978 329.893 57.8054 334.416 55.0505C344.575 48.8621 350.187 35.8868 361.582 32.4712C367.887 30.5811 374.658 32.1034 381.031 33.7522C387.404 35.4011 394.049 37.1827 400.48 35.779C406.911 34.3753 412.927 28.5959 412.109 22.0643L408.898 20.484Z" fill="#2F2E41"/>
<path id="Vector_29" d="M548.029 125.291C547.382 123.86 546.43 122.588 545.239 121.564C544.048 120.541 542.647 119.791 541.134 119.367C539.622 118.944 538.035 118.857 536.486 119.113C534.936 119.369 533.462 119.962 532.166 120.85L436.696 99.4225L435.51 122.754L529.727 136.48C531.362 138.558 533.703 139.963 536.305 140.431C538.908 140.898 541.591 140.394 543.847 139.015C546.103 137.636 547.775 135.477 548.546 132.948C549.316 130.418 549.132 127.694 548.029 125.291V125.291Z" fill="#FFB8B8"/>
<path id="Vector_30" d="M453.435 101.566L447.608 125.186C447.443 125.858 447.134 126.486 446.703 127.028C446.273 127.57 445.73 128.013 445.113 128.326C444.496 128.64 443.819 128.817 443.127 128.845C442.435 128.873 441.746 128.751 441.105 128.489L418.663 119.291C415.227 118.425 412.276 116.232 410.455 113.192C408.635 110.153 408.095 106.515 408.954 103.078C409.813 99.6402 412 96.6839 415.036 94.8573C418.072 93.0307 421.708 92.483 425.147 93.3344L449.215 95.617C449.904 95.6825 450.571 95.8958 451.17 96.2424C451.769 96.5889 452.287 97.0605 452.687 97.625C453.088 98.1896 453.362 98.8338 453.491 99.5139C453.62 100.194 453.601 100.894 453.435 101.566V101.566Z" fill="#6C63FF"/>
<path id="Vector_31" d="M537 143.829C540.866 143.829 544 140.695 544 136.829C544 132.963 540.866 129.829 537 129.829C533.134 129.829 530 132.963 530 136.829C530 140.695 533.134 143.829 537 143.829Z" fill="#6C63FF"/>
</g>
<path id="Road" d="M829 363.829C828.999 364.094 828.894 364.348 828.706 364.535C828.519 364.723 828.265 364.828 828 364.829H1C0.734784 364.829 0.480429 364.724 0.292892 364.536C0.105356 364.349 0 364.094 0 363.829C0 363.564 0.105356 363.309 0.292892 363.122C0.480429 362.934 0.734784 362.829 1 362.829H828C828.265 362.83 828.519 362.935 828.706 363.123C828.894 363.31 828.999 363.564 829 363.829V363.829Z" fill="#3F3D56"/>
<g id="Plants">
<path id="Vector_32" d="M258.015 299.866C255.165 322.196 244.685 342.626 233.505 362.306C233.135 362.976 232.755 363.636 232.365 364.306H116.165C113.815 363.696 111.495 363.026 109.185 362.306C96.0604 358.31 83.6699 352.215 72.4949 344.256C29.7449 313.456 13.2947 255.256 20.7249 203.106C25.345 170.706 39.5647 137.626 67.2547 120.176C81.8748 110.946 100.655 107.946 117.485 111.376C117.925 111.456 118.365 111.556 118.815 111.646C133.295 114.906 146.195 123.006 153.535 136.056C166.735 159.506 158.875 188.556 152.385 214.656C145.915 240.756 142.405 271.996 161.185 291.246C154.985 272.996 161.105 251.226 175.915 238.886C187.105 229.576 202.685 226.086 216.895 228.976C218.255 229.266 219.595 229.596 220.915 229.996C224.105 230.93 227.181 232.218 230.085 233.836C252.235 246.206 261.205 274.696 258.015 299.866Z" fill="#1A9C05"/>
<path id="Vector_33" d="M189.115 362.306C192.335 363.056 195.565 363.716 198.815 364.306H181.245C178.945 363.686 176.655 363.026 174.385 362.306C169.395 360.746 164.481 358.956 159.645 356.936C140.245 348.796 122.375 336.576 108.855 320.316C102.243 312.438 96.8432 303.618 92.8348 294.146C88.4883 283.441 85.726 272.159 84.6351 260.656C82.1849 237.056 84.6849 212.806 89.3548 189.626C94.1742 165.601 101.954 142.267 112.515 120.156C113.785 117.506 115.098 114.873 116.455 112.256C116.548 112.041 116.69 111.849 116.868 111.697C117.046 111.544 117.257 111.435 117.485 111.376C117.946 111.287 118.425 111.384 118.815 111.646C119.283 111.915 119.63 112.353 119.785 112.87C119.939 113.388 119.889 113.945 119.645 114.426C108.755 135.662 100.501 158.148 95.0648 181.386C89.745 204.056 86.7249 227.776 87.7547 251.086C88.7347 272.866 94.4251 294.286 107.335 312.096C119.125 328.356 135.405 341.176 153.415 349.906C164.814 355.36 176.789 359.519 189.115 362.306V362.306Z" fill="white"/>
<path id="Vector_34" d="M227.675 364.306H222.495C221.915 363.646 221.355 362.976 220.805 362.306C209.006 347.97 201.013 330.89 197.565 312.646C193.377 289.878 196.635 266.368 206.855 245.596C209.706 239.772 213.066 234.21 216.895 228.976C218.255 229.266 219.595 229.596 220.915 229.996C210.843 243.34 204.069 258.876 201.145 275.336C198.536 290.76 199.403 306.572 203.683 321.618C207.964 336.664 215.549 350.565 225.885 362.306C226.465 362.976 227.065 363.646 227.675 364.306Z" fill="white"/>
<path id="Vector_35" d="M694.314 347.299C695.067 353.193 697.832 358.584 700.783 363.778C700.881 363.955 700.981 364.129 701.084 364.306H731.751C732.372 364.145 732.984 363.968 733.593 363.778C737.057 362.724 740.327 361.115 743.277 359.015C754.559 350.886 758.901 335.526 756.94 321.763C755.72 313.212 751.967 304.481 744.66 299.876C740.691 297.459 735.957 296.629 731.403 297.553C731.287 297.574 731.171 297.601 731.052 297.625C729.156 297.991 727.36 298.754 725.781 299.865C724.201 300.975 722.875 302.407 721.889 304.067C718.405 310.256 720.479 317.923 722.192 324.811C723.9 331.699 724.826 339.944 719.87 345.024C720.596 342.9 720.744 340.62 720.297 338.419C719.851 336.219 718.826 334.177 717.329 332.503C715.832 330.83 713.916 329.585 711.778 328.898C709.641 328.21 707.359 328.104 705.167 328.59C704.808 328.667 704.454 328.754 704.106 328.859C703.264 329.106 702.452 329.446 701.686 329.873C695.84 333.137 693.473 340.656 694.314 347.299Z" fill="#1A9C05"/>
<path id="Vector_36" d="M712.498 363.778C711.649 363.976 710.796 364.15 709.938 364.306H714.575C715.183 364.143 715.787 363.968 716.386 363.778C717.703 363.367 719 362.894 720.276 362.361C725.454 360.259 730.051 356.945 733.681 352.696C735.426 350.617 736.851 348.289 737.909 345.79C739.056 342.964 739.785 339.987 740.073 336.951C740.599 330.675 740.179 324.356 738.827 318.205C737.555 311.864 735.502 305.706 732.715 299.871C732.379 299.171 732.033 298.476 731.675 297.786C731.65 297.729 731.613 297.678 731.566 297.638C731.519 297.598 731.463 297.569 731.403 297.553C731.281 297.53 731.155 297.555 731.052 297.625C730.928 297.695 730.837 297.811 730.796 297.948C730.755 298.084 730.768 298.231 730.833 298.358C733.707 303.963 735.885 309.897 737.32 316.03C738.798 322.046 739.447 328.234 739.249 334.425C739.144 340.183 737.347 345.783 734.082 350.527C730.907 354.799 726.73 358.226 721.92 360.506C718.912 361.945 715.751 363.043 712.498 363.778Z" fill="white"/>
<path id="Vector_37" d="M702.322 364.306H703.689C703.842 364.132 703.99 363.955 704.135 363.778C707.249 359.995 709.358 355.487 710.268 350.672C711.373 344.663 710.514 338.458 707.816 332.976C707.064 331.439 706.177 329.971 705.167 328.59C704.808 328.667 704.454 328.754 704.106 328.859C706.764 332.381 708.552 336.481 709.323 340.825C710.012 344.896 709.783 349.069 708.653 353.04C707.524 357.011 705.522 360.68 702.794 363.778C702.641 363.955 702.483 364.132 702.322 364.306Z" fill="white"/>
</g>
</g>
</g>
<defs>
<clipPath id="clip0">
<rect width="829" height="364.829" fill="white"/>
</clipPath>
</defs>
</svg>
